<svg width="1937" height="1949" viewBox="0 0 1937 1949" fill="none" xmlns="http://www.w3.org/2000/svg">
<circle cx="968.5" cy="974.5" r="968.5" fill="black"/>
<path d="M1345.4 1216.8L1356.6 1223.2C1270.2 1402.4 1116.6 1548 833.4 1548C516.6 1548 243 1292 243 976.8C243 660 531 404 846.2 404C1022.2 404 1206.2 490.4 1251 528.8V719.2C1131 514.4 894.2 396 683 442.4C411 501.6 311.8 824.8 396.6 1106.4C483 1389.6 715 1535.2 996.6 1493.6C1139 1471.2 1263.8 1378.4 1345.4 1216.8Z" fill="white"/>
<path d="M741.6 1358.6L1083.6 1293.8V1367H648V527H741.6V1358.6Z" fill="white"/>
<path d="M1092 979.5L1095.5 981C1079.5 1009.5 1050 1048.5 990.5 1051.5C925.5 1054.5 852.5 1017.5 850.5 935.5C848 848.5 927 811 982 808.5C1024 806 1082.5 827 1089.5 887.5H893C887 914 888 943.5 896.5 967.5C915 1020 957 1048 1008 1042.5C1057 1037.5 1084 994 1092 979.5ZM959 814C925 820.5 903.5 849.5 894 883.5H1053.5C1047 840 1008 805 959 814ZM1395.63 795.5V819.5L1315.13 822.5C1351.13 840.5 1376.13 874 1376.13 919.5C1376.13 999 1307.63 1051.5 1240.63 1051.5C1228.63 1051.5 1217.13 1050.5 1206.63 1048C1185.63 1045.5 1160.63 1053.5 1144.13 1067.5C1136.63 1073.5 1127.63 1084 1126.63 1097.5C1126.13 1108 1129.13 1117 1135.13 1123.5C1142.63 1131.5 1155.13 1136 1170.13 1136C1197.13 1136 1224.63 1115.5 1253.63 1094C1283.13 1072 1314.13 1049 1345.63 1049C1373.13 1049 1391.63 1066 1391.63 1092C1391.63 1106 1386.13 1119 1375.63 1129.5C1361.13 1144 1338.63 1152 1312.13 1152C1282.13 1152 1245.13 1131.5 1229.13 1117C1209.13 1130.5 1189.63 1140 1170.13 1140C1153.63 1140 1140.13 1135.5 1132.13 1126.5C1125.13 1119 1121.63 1109 1122.63 1097.5C1123.13 1085.5 1129.63 1074 1141.13 1064C1154.63 1053 1173.13 1045.5 1191.13 1043.5C1147.13 1028.5 1115.63 993 1115.63 941C1115.63 858.5 1184.13 808.5 1251.13 808.5C1271.13 808.5 1290.13 812.5 1307.13 819.5L1395.63 795.5ZM1256.13 1097.5C1248.13 1103.5 1240.63 1109 1232.63 1114.5C1248.63 1128.5 1283.63 1147.5 1312.13 1147.5C1337.63 1147.5 1359.13 1140 1372.63 1126.5C1382.13 1116.5 1387.63 1105 1387.13 1092C1387.13 1069 1370.63 1053.5 1345.63 1053.5C1315.63 1053.5 1285.13 1076 1256.13 1097.5ZM1334.13 903.5C1316.63 843.5 1269.63 800.5 1212.63 817C1155.63 834 1140.13 896.5 1157.63 956.5C1175.13 1017 1222.13 1059.5 1279.13 1043C1336.13 1026.5 1351.63 963.5 1334.13 903.5ZM1520.4 808.5C1561.9 808.5 1611.4 830 1611.4 891.5V1049H1605.9L1571.9 979C1562.9 1015.5 1535.9 1051.5 1485.4 1051.5C1437.9 1051.5 1395.9 1018.5 1395.9 974.5C1395.9 872.5 1540.9 867.5 1571.9 931.5V885C1571.9 847 1551.4 813.5 1515.9 813.5C1483.4 813.5 1459.9 831.5 1451.9 858L1448.4 856.5C1456.4 829.5 1480.4 808.5 1520.4 808.5ZM1496.4 1042C1542.9 1042 1569.9 996 1571.9 953V941C1552.4 883.5 1431.9 872 1431.9 970C1431.9 1011.5 1461.9 1042 1496.4 1042ZM1661.39 699H1700.89V1049H1661.39V699Z" fill="white"/>
</svg>
