<svg width="37" height="41" viewBox="0 0 37 41" fill="none" xmlns="http://www.w3.org/2000/svg">
<path d="M36.146 20.2856C36.1461 19.3672 35.9095 18.4643 35.4589 17.6641C35.0084 16.8638 34.3591 16.1932 33.5738 15.717L8.75599 0.84863C7.94852 0.376358 7.03119 0.124388 6.09576 0.117925C5.16034 0.111463 4.23961 0.350733 3.42568 0.811804C2.61176 1.27287 1.93316 1.93958 1.45778 2.74523C0.982401 3.55088 0.726896 4.46724 0.716827 5.40263L0.716827 35.1485C0.72342 36.083 0.975069 36.9995 1.44665 37.8064C1.91823 38.6133 2.59323 39.2824 3.40427 39.7468C4.2153 40.2112 5.13397 40.4548 6.06857 40.4531C7.00316 40.4514 7.92096 40.2046 8.73033 39.7373L33.5647 24.858C34.3518 24.3822 35.0029 23.7114 35.4551 22.9104C35.9073 22.1095 36.1453 21.2054 36.146 20.2856Z" fill="black"/>
</svg>
